<svg id="Layer_1" enable-background="new 0 0 512 512" height="512" viewBox="0 0 512 512" width="512" xmlns="http://www.w3.org/2000/svg"><g><g><g><path d="m35.841 323.513h30v45h-30z" fill="#d0e8ff"/></g><g><path d="m35.841 233.5h30v45h-30z" fill="#d0e8ff"/></g><g><path d="m35.841 143.487h30v45h-30z" fill="#d0e8ff"/></g></g><g><path d="m86.681 35.841h338.638v30h-338.638z" fill="#d0e8ff"/></g><g><path d="m86.681 446.159h338.638v30h-338.638z" fill="#d0e8ff"/></g><g><path d="m256 35.841h169.319v30h-169.319z" fill="#9dcfff"/></g><g><path d="m256 446.159h169.319v30h-169.319z" fill="#9dcfff"/></g><g><path d="m446.159 86.681h30v338.638h-30z" fill="#9dcfff"/></g><g><g><path d="m101.681 101.681h-101.681v-101.681h101.681z" fill="#e20a6c"/></g><g><path d="m512 101.681h-101.681v-101.681h101.681z" fill="#ad0551"/></g><g><path d="m101.681 512h-101.681v-101.681h101.681z" fill="#e20a6c"/></g><g><path d="m512 512h-101.681v-101.681h101.681z" fill="#ad0551"/></g></g><path d="m148.158 125.408v70.268h72.708v190.916h70.268v-190.916h72.708v-70.268z" fill="#554cce"/><g><path d="m256 125.408v261.184h35.134v-190.916h72.708v-70.268z" fill="#3e34c2"/></g></g></svg>